<svg width="222" height="82" viewBox="0 0 222 82" fill="none" xmlns="http://www.w3.org/2000/svg">
<g clip-path="url(#clip0_46_831)">
<path d="M0 54.7455H9.60332C9.60332 58.9734 13.1224 61.0137 17.0231 61.0137C20.6058 61.0137 24.1037 59.1417 24.1037 55.8813C24.1037 52.4948 20.097 51.5693 15.306 50.4544C8.67055 48.8348 0.614782 46.9207 0.614782 37.4973C0.614782 29.1256 6.8262 24.3928 16.5779 24.3928C26.69 24.3928 32.4563 29.7566 32.4563 38.4648H23.0437C23.0437 34.6997 19.9062 32.9328 16.3447 32.9328C13.2496 32.9328 10.1333 34.2369 10.1333 37.0976C10.1333 40.1686 13.9492 41.0941 18.6131 42.209C25.3333 43.8917 33.7494 45.9741 33.7494 55.7551C33.7494 65.1996 26.1812 69.764 17.0655 69.764C6.9534 69.764 0 64.1268 0 54.7455Z" fill="#231331"/>
<path d="M54.694 69.8481C44.4759 69.8481 36.6533 62.0443 36.6533 51.9478C36.6533 41.8513 44.4123 34.2368 54.7364 34.2368C63.5342 34.2368 70.3604 39.7689 72.0139 48.0564H62.8982C61.4142 44.733 58.3615 42.7978 54.694 42.7978C49.7121 42.7978 45.9599 46.7733 45.9599 51.9899C45.9599 57.2064 49.7757 61.2871 54.694 61.2871C58.4039 61.2871 61.3294 59.2467 62.8982 55.6288H72.1411C70.5299 64.1057 63.5765 69.8481 54.694 69.8481Z" fill="#231331"/>
<path d="M74.0703 52.0529C74.0703 41.8302 81.9141 34.2578 92.429 34.2578C102.901 34.2578 110.788 41.8512 110.788 52.0529C110.788 62.2125 102.901 69.848 92.429 69.848C81.9141 69.848 74.0703 62.2125 74.0703 52.0529ZM101.481 52.0529C101.481 46.605 97.7288 42.8188 92.429 42.8188C87.1291 42.8188 83.3768 46.605 83.3768 52.0529C83.3768 57.5008 87.1291 61.287 92.429 61.287C97.7288 61.287 101.481 57.5008 101.481 52.0529Z" fill="#231331"/>
<path d="M113.269 52.0529C113.269 41.8302 121.112 34.2578 131.627 34.2578C142.1 34.2578 149.986 41.8512 149.986 52.0529C149.986 62.2125 142.1 69.848 131.627 69.848C121.091 69.848 113.269 62.2125 113.269 52.0529ZM140.679 52.0529C140.679 46.605 136.927 42.8188 131.627 42.8188C126.327 42.8188 122.575 46.605 122.575 52.0529C122.575 57.5008 126.327 61.287 131.627 61.287C136.906 61.287 140.679 57.5008 140.679 52.0529Z" fill="#231331"/>
<path d="M173.199 34.2578C183.438 34.2578 190.985 41.8512 190.985 52.0529C190.985 62.2546 183.417 69.9111 173.199 69.9111C169.68 69.9111 166.479 68.8804 163.85 67.0715V81.0594H154.671V35.2044H160.734L162.303 38.2754C165.207 35.7302 168.959 34.2578 173.199 34.2578ZM181.7 52.0529C181.7 46.7522 177.799 42.8188 172.457 42.8188C167.115 42.8188 163.193 46.7733 163.193 52.0529C163.193 57.3326 167.115 61.287 172.457 61.287C177.778 61.287 181.7 57.3536 181.7 52.0529Z" fill="#231331"/>
<path d="M207.754 69.8481C199.232 69.8481 193.53 65.0101 193.487 57.7953H202.433C202.476 60.8033 204.787 62.2967 208.094 62.2967C210.638 62.2967 212.927 61.1608 212.927 58.8891C212.927 56.5753 209.98 55.8812 206.398 55.2923C200.971 54.3878 194.06 52.9574 194.06 45.0064C194.06 38.633 199.529 34.2368 207.733 34.2368C215.937 34.2368 221.322 38.7592 221.343 45.4902H212.63C212.588 42.8189 210.701 41.4937 207.5 41.4937C204.638 41.4937 202.963 42.7978 202.963 44.7119C202.963 46.9626 205.868 47.4885 209.387 48.1195C214.92 49.1081 222 50.265 222 58.4895C222 65.3888 216.319 69.8481 207.754 69.8481Z" fill="#231331"/>
<path d="M74.2186 53.9671C73.6462 49.4868 74.7698 45.4903 77.1017 41.9565C77.7165 41.0099 79.7304 38.2124 83.1011 36.5717C88.5706 33.9003 96.3296 34.8258 98.8947 43.3237C100.569 51.5272 93.0225 54.7033 88.189 52.8313C86.1963 52.053 84.7335 50.2651 84.2459 49.9496C80.1332 47.131 75.6178 49.2344 74.2186 53.9671Z" fill="#231331"/>
<path d="M113.395 53.9671C112.823 49.4868 113.947 45.4903 116.278 41.9565C116.893 41.0099 118.907 38.2124 122.278 36.5717C127.747 33.9003 135.506 34.8258 138.071 43.3237C139.746 51.5272 132.199 54.7033 127.366 52.8313C125.373 52.053 123.91 50.2651 123.423 49.9496C119.31 47.131 114.816 49.2344 113.395 53.9671Z" fill="#231331"/>
<path d="M54.5671 26.7697C48.3132 26.7697 43.501 21.9739 43.501 15.7898C43.501 9.60567 48.2708 4.93604 54.5883 4.93604C59.9729 4.93604 64.1704 8.32257 65.188 13.4129H59.5913C58.6797 11.3726 56.8142 10.1946 54.5671 10.1946C51.5143 10.1946 49.2248 12.6346 49.2248 15.8319C49.2248 19.0291 51.5567 21.5322 54.5671 21.5322C56.8354 21.5322 58.6373 20.2701 59.5913 18.0615H65.2515C64.2764 23.257 60.0153 26.7697 54.5671 26.7697Z" fill="#231331"/>
<path d="M67.541 17.4724V5.5249H73.1801V16.8204C73.1801 19.7652 74.7488 21.511 77.3563 21.511C79.9639 21.511 81.4902 19.7231 81.4902 16.8204V5.5249H87.1292V17.4514C87.1292 23.0255 83.2498 26.7486 77.3563 26.7486C71.4629 26.7696 67.541 23.0466 67.541 17.4724Z" fill="#231331"/>
<path d="M98.4927 26.7697C93.2564 26.7697 89.7797 23.8039 89.7373 19.3867H95.228C95.2492 21.2167 96.6695 22.1422 98.7047 22.1422C100.273 22.1422 101.673 21.448 101.673 20.0598C101.673 18.6505 99.8706 18.2298 97.6659 17.8512C94.3376 17.3043 90.1189 16.4208 90.1189 11.5408C90.1189 7.62844 93.4684 4.93604 98.4927 4.93604C103.517 4.93604 106.824 7.71258 106.845 11.8353H101.503C101.482 10.1946 100.316 9.37429 98.3655 9.37429C96.6059 9.37429 95.5883 10.1736 95.5883 11.3515C95.5883 12.7188 97.3691 13.0553 99.5314 13.4339C102.923 14.0439 107.269 14.7591 107.269 19.7863C107.206 24.0353 103.75 26.7697 98.4927 26.7697Z" fill="#231331"/>
<path d="M122.914 21.2166V26.1807H118.907C114.328 26.1807 111.509 23.3832 111.509 18.7977V10.0263H107.735V8.82734L115.982 0.140137H117.063V5.52494H122.808V10.0263H117.148V18.0825C117.148 20.0807 118.314 21.2166 120.349 21.2166H122.914Z" fill="#231331"/>
<path d="M124.229 15.8529C124.229 9.58464 129.041 4.93604 135.485 4.93604C141.909 4.93604 146.742 9.58464 146.742 15.8529C146.742 22.0791 141.909 26.7697 135.485 26.7697C129.041 26.7697 124.229 22.1001 124.229 15.8529ZM141.04 15.8529C141.04 12.5084 138.729 10.1946 135.485 10.1946C132.242 10.1946 129.931 12.5084 129.931 15.8529C129.931 19.1974 132.242 21.5111 135.485 21.5111C138.729 21.5111 141.04 19.1974 141.04 15.8529Z" fill="#231331"/>
<path d="M180.639 13.2447V26.2019H175V14.1492C175 11.3936 173.919 9.94228 171.863 9.94228C169.34 9.94228 167.856 11.7723 167.856 15.0116V26.1808H162.387V14.1492C162.387 11.3936 161.327 9.94228 159.313 9.94228C156.769 9.94228 155.243 11.7723 155.243 15.0116V26.1808H149.604V5.52505H153.547L154.607 8.09125C156.091 6.24022 158.359 5.04126 160.818 5.04126C163.468 5.04126 165.651 6.26126 166.86 8.34366C168.28 6.34539 170.655 5.04126 173.304 5.04126C177.629 5.04126 180.639 8.38573 180.639 13.2447Z" fill="#231331"/>
<path d="M204.85 15.7898C204.85 16.3367 204.807 16.8836 204.744 17.4305H188.993C189.48 20.2491 191.346 21.8057 194.081 21.8057C196.031 21.8057 197.642 20.8801 198.49 19.4077H204.405C202.899 23.9091 198.914 26.7908 194.081 26.7908C187.933 26.7908 183.29 22.0581 183.29 15.874C183.29 9.64777 187.912 4.9571 194.081 4.9571C200.462 4.93606 204.85 9.83708 204.85 15.7898ZM189.141 13.6022H199.232C198.426 11.0781 196.603 9.71087 194.081 9.71087C191.558 9.71087 189.777 11.1622 189.141 13.6022Z" fill="#231331"/>
<path d="M220.198 5.41972V10.6994H217.76C214.58 10.6994 213.329 12.0876 213.329 15.4742V26.2017H207.69V5.52489H211.294L212.291 8.04902C213.775 6.21902 215.661 5.39868 218.333 5.39868H220.198V5.41972Z" fill="#231331"/>
</g>
<defs>
<clipPath id="clip0_46_831">
<rect width="222" height="80.8983" fill="white" transform="translate(0 0.140137)"/>
</clipPath>
</defs>
</svg>
