<svg width="78" height="76" viewBox="0 0 78 76" fill="none" xmlns="http://www.w3.org/2000/svg">
<path d="M0 37.7114C0 16.0474 16.6545 0 38.9805 0C61.2165 0 77.961 16.092 77.961 37.7114C77.961 59.2416 61.2165 75.4227 38.9805 75.4227C16.6545 75.4227 0 59.2416 0 37.7114ZM58.2007 37.7114C58.2007 26.1662 50.2335 18.1425 38.9805 18.1425C27.7275 18.1425 19.7603 26.1662 19.7603 37.7114C19.7603 49.2566 27.7275 57.2803 38.9805 57.2803C50.2335 57.2803 58.2007 49.2566 58.2007 37.7114Z" fill="white"/>
<path d="M0.313332 42.0628C-0.904083 32.519 1.48566 24.0058 6.4455 16.4783C7.7531 14.462 12.0366 8.50273 19.2058 5.00782C30.8389 -0.682601 47.3416 1.28889 52.7975 19.3907C56.3595 36.8652 40.3077 43.631 30.0273 39.6432C25.7889 37.9854 22.6777 34.1769 21.6406 33.5048C12.8933 27.5007 3.28924 31.9813 0.313332 42.0628Z" fill="white"/>
</svg>
